{
    "asset" : {
        "generator" : "Khronos glTF Blender I/O v1.3.48",
        "version" : "2.0"
    },
    "scene" : 0,
    "scenes" : [
        {
            "name" : "Scene",
            "nodes" : [
                0,
                1,
                2,
                3,
                4,
                5,
                6,
                7
            ]
        }
    ],
    "nodes" : [
        {
            "name" : "Light",
            "rotation" : [
                0.16907575726509094,
                0.7558803558349609,
                -0.27217137813568115,
                0.570947527885437
            ],
            "translation" : [
                2.66082763671875,
                6.353851318359375,
                -7.240283012390137
            ]
        },
        {
            "name" : "Camera",
            "rotation" : [
                0.483536034822464,
                0.33687159419059753,
                -0.20870360732078552,
                0.7804827094078064
            ],
            "translation" : [
                7.358891487121582,
                4.958309173583984,
                6.925790786743164
            ]
        },
        {
            "mesh" : 0,
            "name" : "Sphere",
            "rotation" : [
                0.27781447768211365,
                0.060024194419384,
                0.017395781353116035,
                0.9585998058319092
            ],
            "translation" : [
                0.008403845131397247,
                0.3529980182647705,
                -1.5405198335647583
            ]
        },
        {
            "name" : "Sphere.001",
            "rotation" : [
                0.27781447768211365,
                0.060024194419384,
                0.017395781353116035,
                0.9585998058319092
            ],
            "translation" : [
                0.7857101559638977,
                0.8721566200256348,
                -0.8455628156661987
            ]
        },
        {
            "mesh" : 1,
            "name" : "Cylinder",
            "rotation" : [
                0.7246056199073792,
                -0.46645185351371765,
                -0.45824193954467773,
                0.21767793595790863
            ],
            "translation" : [
                -1.5037016868591309,
                6.158759117126465,
                0.6675982475280762
            ]
        },
        {
            "mesh" : 2,
            "name" : "Cylinder.002",
            "rotation" : [
                -0.38280338048934937,
                -0.5730665326118469,
                0.29861536622047424,
                0.6602160334587097
            ],
            "translation" : [
                -2.0234479904174805,
                1.4871437549591064,
                0.547659695148468
            ]
        },
        {
            "mesh" : 3,
            "name" : "Cylinder.001",
            "rotation" : [
                -0.3749663233757019,
                0.6955686211585999,
                -0.3115183711051941,
                0.5277696847915649
            ],
            "translation" : [
                2.159529685974121,
                5.107081890106201,
                2.1714539527893066
            ]
        },
        {
            "mesh" : 4,
            "name" : "Cylinder.003",
            "rotation" : [
                -0.6557066440582275,
                -0.5271991491317749,
                -0.5344504117965698,
                -0.0804523378610611
            ],
            "translation" : [
                1.2294058799743652,
                2.895106077194214,
                -1.7974499464035034
            ]
        }
    ],
    "materials" : [
        {
            "doubleSided" : true,
            "emissiveFactor" : [
                0,
                0,
                0
            ],
            "name" : "Material.001",
            "pbrMetallicRoughness" : {
                "baseColorFactor" : [
                    0.4564110040664673,
                    0.5775805115699768,
                    0.8227860331535339,
                    1
                ],
                "metallicFactor" : 0,
                "roughnessFactor" : 0.5
            }
        },
        {
            "doubleSided" : true,
            "emissiveFactor" : [
                0,
                0,
                0
            ],
            "name" : "Material.003",
            "pbrMetallicRoughness" : {
                "baseColorFactor" : [
                    0.4564110040664673,
                    0.5775805115699768,
                    0.8227860331535339,
                    1
                ],
                "metallicFactor" : 0,
                "roughnessFactor" : 0.5
            }
        },
        {
            "doubleSided" : true,
            "emissiveFactor" : [
                0,
                0,
                0
            ],
            "name" : "Material.004",
            "pbrMetallicRoughness" : {
                "baseColorFactor" : [
                    0.4564110040664673,
                    0.5775805115699768,
                    0.8227860331535339,
                    1
                ],
                "metallicFactor" : 0,
                "roughnessFactor" : 0.5
            }
        },
        {
            "doubleSided" : true,
            "emissiveFactor" : [
                0,
                0,
                0
            ],
            "name" : "Material.002",
            "pbrMetallicRoughness" : {
                "baseColorFactor" : [
                    0.4564110040664673,
                    0.5775805115699768,
                    0.8227860331535339,
                    1
                ],
                "metallicFactor" : 0,
                "roughnessFactor" : 0.5
            }
        },
        {
            "doubleSided" : true,
            "emissiveFactor" : [
                0,
                0,
                0
            ],
            "name" : "Material.005",
            "pbrMetallicRoughness" : {
                "baseColorFactor" : [
                    0.4564110040664673,
                    0.5775805115699768,
                    0.8227860331535339,
                    1
                ],
                "metallicFactor" : 0,
                "roughnessFactor" : 0.5
            }
        }
    ],
    "meshes" : [
        {
            "name" : "Sphere",
            "primitives" : [
                {
                    "attributes" : {
                        "POSITION" : 0,
                        "NORMAL" : 1,
                        "TEXCOORD_0" : 2
                    },
                    "indices" : 3,
                    "material" : 0
                }
            ]
        },
        {
            "name" : "Cylinder",
            "primitives" : [
                {
                    "attributes" : {
                        "POSITION" : 4,
                        "NORMAL" : 5,
                        "TEXCOORD_0" : 6
                    },
                    "indices" : 7,
                    "material" : 1
                }
            ]
        },
        {
            "name" : "Cylinder.002",
            "primitives" : [
                {
                    "attributes" : {
                        "POSITION" : 8,
                        "NORMAL" : 9,
                        "TEXCOORD_0" : 10
                    },
                    "indices" : 11,
                    "material" : 2
                }
            ]
        },
        {
            "name" : "Cylinder.003",
            "primitives" : [
                {
                    "attributes" : {
                        "POSITION" : 12,
                        "NORMAL" : 13,
                        "TEXCOORD_0" : 14
                    },
                    "indices" : 15,
                    "material" : 3
                }
            ]
        },
        {
            "name" : "Cylinder.004",
            "primitives" : [
                {
                    "attributes" : {
                        "POSITION" : 16,
                        "NORMAL" : 17,
                        "TEXCOORD_0" : 18
                    },
                    "indices" : 19,
                    "material" : 4
                }
            ]
        }
    ],
    "accessors" : [
        {
            "bufferView" : 0,
            "componentType" : 5126,
            "count" : 591,
            "max" : [
                1.000000238418579,
                8.654068946838379,
                0.995780348777771
            ],
            "min" : [
                -0.9999998211860657,
                -1,
                -1.0042200088500977
            ],
            "type" : "VEC3"
        },
        {
            "bufferView" : 1,
            "componentType" : 5126,
            "count" : 591,
            "type" : "VEC3"
        },
        {
            "bufferView" : 2,
            "componentType" : 5126,
            "count" : 591,
            "type" : "VEC2"
        },
        {
            "bufferView" : 3,
            "componentType" : 5123,
            "count" : 2970,
            "type" : "SCALAR"
        },
        {
            "bufferView" : 4,
            "componentType" : 5126,
            "count" : 130,
            "max" : [
                1.9476985931396484,
                1.9788672924041748,
                5.116979598999023
            ],
            "min" : [
                -4.554075241088867,
                0.38821616768836975,
                -1.1975589990615845
            ],
            "type" : "VEC3"
        },
        {
            "bufferView" : 5,
            "componentType" : 5126,
            "count" : 130,
            "type" : "VEC3"
        },
        {
            "bufferView" : 6,
            "componentType" : 5126,
            "count" : 130,
            "type" : "VEC2"
        },
        {
            "bufferView" : 7,
            "componentType" : 5123,
            "count" : 372,
            "type" : "SCALAR"
        },
        {
            "bufferView" : 8,
            "componentType" : 5126,
            "count" : 130,
            "max" : [
                2.423919200897217,
                3.1013994216918945,
                3.7742252349853516
            ],
            "min" : [
                -3.280071496963501,
                0.9494268298149109,
                -1.3564412593841553
            ],
            "type" : "VEC3"
        },
        {
            "bufferView" : 9,
            "componentType" : 5126,
            "count" : 130,
            "type" : "VEC3"
        },
        {
            "bufferView" : 10,
            "componentType" : 5126,
            "count" : 130,
            "type" : "VEC2"
        },
        {
            "bufferView" : 11,
            "componentType" : 5123,
            "count" : 372,
            "type" : "SCALAR"
        },
        {
            "bufferView" : 12,
            "componentType" : 5126,
            "count" : 130,
            "max" : [
                1.9399160146713257,
                1.8885748386383057,
                5.122300148010254
            ],
            "min" : [
                -4.566547393798828,
                0.5716126561164856,
                -1.1975589990615845
            ],
            "type" : "VEC3"
        },
        {
            "bufferView" : 13,
            "componentType" : 5126,
            "count" : 130,
            "type" : "VEC3"
        },
        {
            "bufferView" : 14,
            "componentType" : 5126,
            "count" : 130,
            "type" : "VEC2"
        },
        {
            "bufferView" : 15,
            "componentType" : 5123,
            "count" : 372,
            "type" : "SCALAR"
        },
        {
            "bufferView" : 16,
            "componentType" : 5126,
            "count" : 130,
            "max" : [
                2.4234750270843506,
                3.1013994216918945,
                3.7742252349853516
            ],
            "min" : [
                -3.280071496963501,
                0.9437734484672546,
                -1.3564412593841553
            ],
            "type" : "VEC3"
        },
        {
            "bufferView" : 17,
            "componentType" : 5126,
            "count" : 130,
            "type" : "VEC3"
        },
        {
            "bufferView" : 18,
            "componentType" : 5126,
            "count" : 130,
            "type" : "VEC2"
        },
        {
            "bufferView" : 19,
            "componentType" : 5123,
            "count" : 372,
            "type" : "SCALAR"
        }
    ],
    "bufferViews" : [
        {
            "buffer" : 0,
            "byteLength" : 7092,
            "byteOffset" : 0
        },
        {
            "buffer" : 0,
            "byteLength" : 7092,
            "byteOffset" : 7092
        },
        {
            "buffer" : 0,
            "byteLength" : 4728,
            "byteOffset" : 14184
        },
        {
            "buffer" : 0,
            "byteLength" : 5940,
            "byteOffset" : 18912
        },
        {
            "buffer" : 0,
            "byteLength" : 1560,
            "byteOffset" : 24852
        },
        {
            "buffer" : 0,
            "byteLength" : 1560,
            "byteOffset" : 26412
        },
        {
            "buffer" : 0,
            "byteLength" : 1040,
            "byteOffset" : 27972
        },
        {
            "buffer" : 0,
            "byteLength" : 744,
            "byteOffset" : 29012
        },
        {
            "buffer" : 0,
            "byteLength" : 1560,
            "byteOffset" : 29756
        },
        {
            "buffer" : 0,
            "byteLength" : 1560,
            "byteOffset" : 31316
        },
        {
            "buffer" : 0,
            "byteLength" : 1040,
            "byteOffset" : 32876
        },
        {
            "buffer" : 0,
            "byteLength" : 744,
            "byteOffset" : 33916
        },
        {
            "buffer" : 0,
            "byteLength" : 1560,
            "byteOffset" : 34660
        },
        {
            "buffer" : 0,
            "byteLength" : 1560,
            "byteOffset" : 36220
        },
        {
            "buffer" : 0,
            "byteLength" : 1040,
            "byteOffset" : 37780
        },
        {
            "buffer" : 0,
            "byteLength" : 744,
            "byteOffset" : 38820
        },
        {
            "buffer" : 0,
            "byteLength" : 1560,
            "byteOffset" : 39564
        },
        {
            "buffer" : 0,
            "byteLength" : 1560,
            "byteOffset" : 41124
        },
        {
            "buffer" : 0,
            "byteLength" : 1040,
            "byteOffset" : 42684
        },
        {
            "buffer" : 0,
            "byteLength" : 744,
            "byteOffset" : 43724
        }
    ],
    "buffers" : [
        {
            "byteLength" : 44468,
            "uri" : "data:application/octet-stream;base64,"
        }
    ]
}
